<?xml version="1.0" encoding="utf-8"?>
<!-- Generator: Adobe Illustrator 23.0.2, SVG Export Plug-In . SVG Version: 6.00 Build 0)  -->
<svg version="1.1" id="Capa_1" xmlns="http://www.w3.org/2000/svg" xmlns:xlink="http://www.w3.org/1999/xlink" x="0px" y="0px"
	 viewBox="0 0 298.4 133.4" style="enable-background:new 0 0 298.4 133.4;" xml:space="preserve">
<style type="text/css">
	.st0{fill:#FCEA00;}
	.st1{fill:#003782;}
	.st2{fill:#FFFFFF;}
</style>
<title>Log-Empremar</title>
<polygon class="st0" points="127.9,21.5 62.3,2.7 0,19.6 0,93.6 61,111 111.5,97.4 298.4,97.4 298.4,84.7 298.4,21.5 "/>
<rect x="115.3" y="34.2" class="st1" width="170.8" height="50.5"/>
<path class="st2" d="M130.8,66.8c-0.1,0.6,0.1,1.3,0.6,1.7c0.5,0.4,1.1,0.6,1.7,0.6h3.7v4.6h-4.2c-2.3,0-4.2-0.5-5.7-1.9
	c-1.3-1.3-1.7-3.2-1.7-5.4V52.6c0-2.2,0.4-4.1,1.7-5.4c1.4-1.4,3.4-1.9,5.7-1.9h4.2v4.6h-3.7c-0.6-0.1-1.3,0.2-1.7,0.6
	c-0.4,0.5-0.7,1.1-0.6,1.7v8.1h4.9V65h-4.9V66.8z"/>
<path class="st2" d="M148.4,73.7V52.6c0-1.8-0.8-2.9-1.8-2.9s-1.7,1-1.7,2.9v21.1h-5.5V53.5c0-5.2,2.9-8.3,7.4-8.3
	c1.6,0,3.2,0.6,4.4,1.7c1.2-1,2.8-1.6,4.4-1.7c4.4,0,7.4,3.1,7.4,8.3v20.2h-5.5V52.6c0-1.8-0.8-2.9-1.7-2.9s-1.8,1-1.8,2.9v21.1
	H148.4z"/>
<path class="st2" d="M172,50c2,0,2.9,1.3,2.9,4.2c0,4.4-2.2,5.9-2.9,5.9V50 M172,65.4c5.1-1.3,8.6-5.9,8.5-11.1c0-5.7-4-9-9.8-9
	h-4.2v28.4h5.5V65.4z"/>
<path class="st2" d="M188,50c1.9,0,2.9,1.5,2.9,4.2c0,3.8-2.1,5.9-2.9,5.9V50 M190.1,69.4c0.5,1.4,0.8,2.8,0.7,4.3h5.5
	c0.1-2.1-0.3-4.2-1-6.2c-0.7-1.6-1.6-3.2-2.8-4.5c1.2-0.8,3.9-3.4,3.9-8.9c0-6-4.4-8.8-9.6-8.8h-4.4v28.4h5.5v-7.6
	C188.9,67,189.6,68.2,190.1,69.4z"/>
<path class="st2" d="M204.8,66.8c-0.1,1.1,0.6,2.2,1.8,2.3c0.2,0,0.4,0,0.5,0h3.7v4.6h-4.2c-2.3,0-4.2-0.5-5.6-1.9
	c-1.3-1.3-1.7-3.2-1.7-5.4V52.6c0-2.2,0.4-4.1,1.7-5.4c1.4-1.4,3.3-1.9,5.6-1.9h4.2v4.6h-3.7c-1.1-0.1-2.2,0.7-2.3,1.8
	c0,0.2,0,0.4,0,0.5v8.1h4.9V65h-4.9V66.8z"/>
<path class="st2" d="M222.4,73.7V52.6c0-1.8-0.8-2.9-1.8-2.9s-1.7,1-1.7,2.9v21.1h-5.5V53.5c0-5.2,2.9-8.3,7.4-8.3
	c1.6,0,3.2,0.6,4.4,1.7c1.2-1,2.8-1.6,4.4-1.7c4.4,0,7.4,3.1,7.4,8.3v20.2h-5.5V52.6c0-1.8-0.8-2.9-1.7-2.9s-1.8,1-1.8,2.9v21.1
	H222.4z"/>
<path class="st2" d="M246,52.6c0-1.7,0.8-2.9,1.7-2.9s1.8,1.2,1.8,2.9v7.8H246V52.6 M249.5,73.7h5.5V53.5c0-5.6-3.6-8.3-7.3-8.3
	s-7.3,2.8-7.3,8.3v20.2h5.5v-8.8h3.5V73.7z"/>
<path class="st2" d="M263.9,50c1.9,0,3,1.5,3,4.2c0,3.8-2.1,5.9-3,5.9V50 M266,69.4c0.5,1.4,0.8,2.8,0.7,4.3h5.5
	c0.1-2.1-0.3-4.2-1-6.2c-0.7-1.6-1.6-3.2-2.8-4.5c1.3-0.8,3.9-3.4,3.9-8.9c0-6-4.4-8.8-9.6-8.8h-4.4v28.4h5.5v-7.6
	C264.8,67,265.5,68.2,266,69.4z"/>
<path class="st2" d="M277,46.6c0.3,0.2,0.5,0.4,0.7,0.7c0.2,0.3,0.2,0.6,0.3,0.9c0,0.3-0.1,0.6-0.2,0.9c-0.2,0.3-0.4,0.5-0.7,0.7
	c-0.3,0.2-0.6,0.2-0.9,0.2c-0.3,0-0.6-0.1-0.9-0.2c-0.3-0.2-0.5-0.4-0.7-0.7c-0.3-0.6-0.3-1.3,0-1.9c0.2-0.3,0.4-0.5,0.7-0.7
	c0.3-0.2,0.6-0.2,0.9-0.2C276.4,46.4,276.7,46.5,277,46.6 M275,46.2c-0.4,0.2-0.6,0.5-0.8,0.8c-0.2,0.3-0.3,0.7-0.4,1.2
	c0,0.4,0.1,0.8,0.3,1.1c0.2,0.3,0.5,0.6,0.8,0.8c0.3,0.2,0.7,0.3,1.1,0.3c0.4,0,0.8-0.1,1.1-0.3c0.3-0.2,0.6-0.5,0.8-0.8
	c0.4-0.7,0.4-1.6,0-2.3c-0.2-0.4-0.5-0.6-0.9-0.8C276.5,45.9,275.7,45.9,275,46.2 M275.5,49.5v-1h0.2c0.1,0,0.2,0,0.3,0.1
	c0.2,0.2,0.3,0.4,0.4,0.6l0.2,0.4h0.5l-0.3-0.5c-0.1-0.2-0.2-0.3-0.4-0.5c-0.1-0.1-0.1-0.1-0.2-0.1c0.2,0,0.4-0.1,0.5-0.2
	c0.2-0.2,0.2-0.6,0.1-0.8c-0.1-0.1-0.2-0.2-0.3-0.2c-0.2-0.1-0.4-0.1-0.6-0.1h-0.8v2.4L275.5,49.5 M275.5,47.4h0.5
	c0.1,0,0.3,0,0.4,0c0.1,0,0.1,0.1,0.2,0.1c0,0.1,0.1,0.1,0.1,0.2c0,0.1,0,0.2-0.1,0.3c-0.1,0.1-0.3,0.1-0.5,0.1h-0.5V47.4z"/>
<g>
	<polygon class="st1" points="110.6,34 110.6,84.4 63.6,97.1 63.6,46.7 	"/>
	<polygon class="st1" points="58.7,97.1 12.7,84 12.7,33.5 58.7,46.7 	"/>
	<polygon class="st1" points="61.2,41.7 15.2,28.6 62.2,15.9 108.2,29.1 	"/>
</g>
<path class="st2" d="M128.3,133.2c-0.1,0.1-0.2,0.1-0.3,0.1c-0.2,0.1-0.4,0.1-0.6,0c-0.3-0.1-0.5-0.2-0.7-0.4l1-3.2
	c0.3-0.9,0.5-1.7,0.7-2.3s0.4-1.4,0.6-2.1c-0.1,0-0.2-0.1-0.2-0.2c0-0.1,0-0.3,0.1-0.4c0.1-0.2,0.2-0.3,0.3-0.3c0.1,0,0.2,0,0.4,0.1
	c0.2,0.1,0.3,0.2,0.4,0.3c0.1,0.1,0.2,0.2,0.3,0.3c0,0.2,0,0.3,0,0.5c0,0.3-0.1,0.6-0.2,1s-0.2,0.9-0.4,1.6c-0.2,0.6-0.3,1.3-0.5,2
	C128.8,131.5,128.6,132.5,128.3,133.2z M129.3,121c0.2,0,0.4,0,0.6,0.1c0.2,0.1,0.4,0.4,0.4,0.6c0.1,0.4,0.1,0.9,0.1,1.3
	c-0.1,0.5-0.2,0.8-0.4,0.8c-0.1,0-0.3,0-0.4,0c-0.2-0.1-0.3-0.2-0.4-0.3c-0.1-0.1-0.2-0.3-0.3-0.5c-0.1-0.4-0.1-0.8,0-1.2
	C128.9,121.3,129.1,121,129.3,121L129.3,121z"/>
<path class="st2" d="M143.3,122.7l0.1,0.6c-0.6,1.1-1.2,2.2-1.9,3.3c-0.5,0.8-1.2,1.5-1.9,2.2c-0.6,0.5-1.3,0.9-2.1,1.1
	c-0.6,0.1-1.1,0.1-1.7,0c-0.5-0.1-1-0.4-1.3-0.9c-0.4-0.5-0.7-1-0.8-1.6c-0.2-0.6-0.2-1.1-0.2-1.7c0-0.6,0.1-1.3,0.2-1.9
	c0.2-0.7,0.4-1.4,0.6-2.1c0.3-0.8,0.6-1.6,1-2.4c0.4-0.8,0.9-1.6,1.4-2.3c0.4-0.6,0.9-1.1,1.4-1.6c0.4-0.4,0.8-0.7,1.2-1
	c0.3-0.2,0.6-0.4,1-0.4c0.3-0.1,0.5-0.1,0.8,0c0.3,0.1,0.5,0.3,0.6,0.5c0.2,0.3,0.3,0.6,0.4,0.9c0.2,0.8,0.1,1.6-0.1,2.3
	c-0.3,0.9-0.6,1.9-1.1,2.7c-0.4,0.8-0.9,1.6-1.4,2.3c-0.5,0.6-0.9,0.9-1.1,1c-0.2,0-0.4,0-0.6-0.1c-0.2-0.1-0.3-0.2-0.4-0.4
	c-0.1-0.5,0-0.9,0.2-1.3c0.2-0.5,0.5-1.1,0.8-1.6c0.3-0.5,0.5-0.7,0.6-0.8s0.1,0,0.1,0c0,0.1,0,0.2,0,0.3c0,0.1,0,0.2,0,0.3
	c0,0.1,0,0.1,0.1,0.1s0.3-0.3,0.6-1c0.3-0.7,0.6-1.3,0.8-2.1c0.2-0.5,0.3-1.1,0.2-1.7c0-0.1-0.1-0.3-0.2-0.4
	c-0.1-0.1-0.2-0.1-0.4-0.1c-0.7,0.3-1.2,0.8-1.6,1.4c-0.7,1-1.4,2-1.9,3.1c-0.6,1.2-1,2.4-1.3,3.7c-0.3,1-0.3,2.1,0,3.1
	c0.1,0.4,0.3,0.8,0.5,1.2c0.2,0.3,0.5,0.5,0.8,0.6c0.3,0.1,0.7,0.1,1,0c1-0.3,1.9-0.9,2.6-1.6C141.6,125.2,142.5,124,143.3,122.7z"
	/>
<path class="st2" d="M143.9,121c0.6-0.9,1.3-1.7,2.1-2.3c0.5-0.5,1.1-0.8,1.8-1c0.1,0,0.3,0,0.4,0.1c0.1,0.1,0.3,0.2,0.4,0.3
	c0.1,0.1,0.1,0.2,0.2,0.3c0,0.1,0,0.2-0.1,0.3c-0.1,0.1-0.3,0.2-0.4,0.3l0.3,0.3c0.1,0.1,0.2,0.3,0.2,0.3c0.1,0.1,0.1,0.1,0.1,0.2
	c0,0.3-0.1,0.6-0.2,0.9c-0.2,0.4-0.3,0.8-0.4,1c-0.1,0.2-0.1,0.5,0,0.7c0.1,0.4,0.4,0.6,0.8,0.5s0.9-0.6,1.6-1.5
	c0.1,0.2,0.1,0.3,0.1,0.5c-1.1,1.9-1.9,3-2.5,3.1c-0.2,0.1-0.4,0-0.5-0.1c-0.2-0.2-0.3-0.4-0.3-0.6c-0.1-0.7-0.1-1.4,0-2.1
	c-0.6,1.1-1.1,1.9-1.4,2.4s-0.6,0.8-0.9,0.8s-0.3,0-0.6-0.2c-0.3-0.2-0.5-0.5-0.7-0.8c-0.2-0.3-0.4-0.7-0.5-1.1
	c-0.1-0.2-0.1-0.5-0.1-0.7c0-0.2,0.1-0.4,0.2-0.6C143.5,121.6,143.7,121.3,143.9,121z M147.8,119.1c-1,0.7-1.9,1.5-2.8,2.4
	c-0.5,0.4-0.7,1.1-0.6,1.7c0,0.2,0.1,0.3,0.2,0.4c0.1,0.1,0.2,0.1,0.3,0.1c0.1,0,0.2-0.1,0.3-0.2c0.5-0.5,1-1.1,1.3-1.8
	C147,121,147.4,120.1,147.8,119.1z"/>
<path class="st2" d="M154.6,120.4c0.1,0.2,0.1,0.4,0.2,0.7c-0.8,1.9-1.6,2.9-2.4,3c-0.4,0.1-0.9-0.1-1.1-0.5
	c-0.4-0.5-0.7-1.1-0.8-1.7c-0.2-0.7-0.2-1.5-0.1-2.2c0.1-0.9,0.2-1.8,0.5-2.7c0.2-0.9,0.5-1.7,0.9-2.5c0.3-0.6,0.6-1.1,1.1-1.6
	c0.1-0.1,0.2-0.2,0.4-0.2c0.1,0,0.2,0,0.3,0.1c0.1,0.2,0.2,0.3,0.2,0.5c0.2,1.1,0.1,2.2-0.3,3.2c-0.4,1.5-1.1,2.9-1.9,4.2
	c0,0.2,0,0.5,0.1,0.7c0.1,0.3,0.2,0.6,0.5,0.9c0.2,0.2,0.5,0.3,0.8,0.2c0.2,0,0.3-0.1,0.4-0.3c0.2-0.2,0.3-0.3,0.4-0.5L154.6,120.4z
	 M151.6,119.3c0.2-0.4,0.5-0.8,0.6-1.2c0.2-0.5,0.4-0.9,0.5-1.4c0.1-0.4,0.2-0.8,0.3-1.3c0.1-0.3,0.1-0.6,0-0.8
	c0-0.1-0.1-0.2-0.2-0.2s-0.1,0-0.2,0.1c-0.4,0.6-0.7,1.3-0.8,2C151.7,117.5,151.6,118.4,151.6,119.3z"/>
<path class="st2" d="M158.8,119.7l0.1,0.6c-0.3,0.7-0.7,1.4-1.2,1.9c-0.3,0.4-0.7,0.7-1.1,0.8c-0.5,0.1-1-0.1-1.2-0.6
	c-0.4-0.5-0.6-1-0.8-1.6c0-0.2-0.1-0.4-0.1-0.7c0-0.2,0-0.4,0-0.5c0.1-0.2,0.1-0.5,0.2-0.7c0.5-1.4,1.1-2.2,1.8-2.4
	c0.4-0.1,0.6,0,0.6,0.3c0,0.3,0,0.6-0.1,0.9c-0.1,0.4-0.2,0.7-0.4,1c-0.4,0.6-0.6,1-0.8,1.2c-0.1,0.2-0.1,0.5-0.1,0.7
	c0,0.2,0.2,0.4,0.4,0.5c0.2,0.1,0.4,0.1,0.7,0.1c0.3-0.1,0.6-0.2,0.8-0.5C158,120.6,158.4,120.2,158.8,119.7z M157.2,115.9
	c-0.2,0-0.3,0-0.5-0.1c-0.1-0.1-0.3-0.2-0.3-0.4c-0.1-0.3,0-0.6,0.2-0.9c0.1-0.3,0.4-0.5,0.7-0.6c0.2,0,0.3,0,0.5,0.1
	c0.2,0.1,0.3,0.3,0.3,0.4c0,0.3,0,0.6-0.2,0.9C157.8,115.6,157.5,115.8,157.2,115.9z"/>
<path class="st2" d="M162.7,119c-0.4,0.7-0.7,1.2-1.1,1.7c-0.2,0.4-0.5,0.7-0.8,1.1c-0.2,0.3-0.4,0.4-0.4,0.4s-0.4-0.1-0.6-0.3
	c-0.3-0.2-0.5-0.5-0.7-0.9c-0.2-0.3-0.4-0.7-0.5-1.1c-0.1-0.7,0-1.3,0.4-1.9c0.4-0.7,0.9-1.3,1.6-1.8c0.4-0.4,0.9-0.7,1.5-0.8
	c0.4,0,0.7,0.1,1,0.4c0.2-1,0.5-1.9,0.7-2.7c0.2-0.6,0.4-1.2,0.7-1.8c0.2-0.4,0.4-0.6,0.5-0.6c0.1,0,0.3,0,0.4,0.1
	c0.1,0.1,0.2,0.2,0.3,0.4c0,0.6-0.1,1.2-0.3,1.7c-0.3,0.8-0.6,1.6-0.9,2.4c-0.3,0.7-0.5,1.5-0.7,2.3c-0.1,0.7-0.1,1.3,0,2
	c0.1,0.5,0.3,0.8,0.7,0.7c0.3-0.1,0.5-0.3,0.7-0.5c0.3-0.3,0.6-0.8,1.1-1.4c0,0.2,0.1,0.4,0.1,0.6c-0.9,1.8-1.7,2.8-2.4,3
	c-0.2,0.1-0.5,0-0.7-0.2c-0.2-0.3-0.3-0.6-0.4-0.9C162.8,120.3,162.7,119.7,162.7,119z M162.9,116.8c-0.6,0.3-1.1,0.7-1.6,1.2
	c-0.4,0.3-0.8,0.6-1.1,1c-0.1,0.2-0.2,0.5-0.2,0.7c0,0.3,0,0.5,0,0.8c0,0.1,0.1,0.2,0.1,0.2c0.1,0.1,0.2,0.1,0.2,0.1
	c0.1,0,0.2-0.1,0.3-0.2c0.1-0.2,0.3-0.3,0.4-0.5l0.4-0.5c0.1-0.1,0.3-0.3,0.5-0.7c0.2-0.3,0.4-0.5,0.6-0.8c0.1-0.2,0.2-0.4,0.3-0.6
	C162.8,117.2,162.9,117,162.9,116.8z"/>
<path class="st2" d="M166.9,116.7c0.6-0.9,1.4-1.6,2.2-2.2c0.5-0.4,1.2-0.7,1.8-0.9c0.1,0,0.3,0,0.4,0.1c0.1,0.1,0.2,0.2,0.3,0.3
	c0.1,0.1,0.1,0.2,0.1,0.3c0,0.1,0,0.2-0.1,0.3c-0.1,0.1-0.3,0.2-0.4,0.2l0.2,0.3l0.2,0.3c0,0.1,0.1,0.1,0.1,0.2
	c0,0.3-0.1,0.6-0.3,0.9c-0.2,0.4-0.4,0.7-0.4,0.9c-0.1,0.2-0.1,0.5,0,0.7c0.1,0.4,0.3,0.6,0.7,0.6s1-0.6,1.7-1.4
	c0,0.2,0.1,0.4,0.1,0.5c-1.1,1.9-2,2.9-2.7,3c-0.2,0.1-0.4,0-0.5-0.2c-0.1-0.2-0.2-0.4-0.3-0.6c-0.1-0.7-0.1-1.4,0.1-2.1
	c-0.7,1.1-1.2,1.9-1.5,2.3s-0.6,0.7-0.9,0.8c-0.2,0-0.4-0.1-0.6-0.3c-0.3-0.2-0.5-0.5-0.7-0.8c-0.2-0.3-0.4-0.7-0.5-1.1
	c-0.1-0.2-0.1-0.5-0.1-0.7c0-0.2,0.1-0.4,0.2-0.6C166.5,117.3,166.7,117,166.9,116.7z M170.9,115.1c-1,0.7-2,1.4-2.9,2.3
	c-0.5,0.4-0.7,1-0.6,1.7c0,0.2,0.1,0.3,0.2,0.4c0.1,0.1,0.2,0.2,0.3,0.1c0.1,0,0.2-0.1,0.3-0.2c0.6-0.5,1-1.1,1.4-1.7
	C169.9,117.1,170.4,116.2,170.9,115.1L170.9,115.1z"/>
<path class="st2" d="M177.5,116.8c-0.4,0.7-0.8,1.2-1.1,1.7c-0.3,0.4-0.5,0.7-0.8,1.1c-0.2,0.2-0.4,0.4-0.5,0.4s-0.3-0.1-0.6-0.3
	c-0.6-0.5-1-1.2-1.1-2c-0.1-0.7,0.1-1.3,0.5-1.8c0.4-0.7,1-1.2,1.6-1.7c0.4-0.4,0.9-0.6,1.5-0.8c0.4,0,0.8,0.1,1,0.4
	c0.3-1,0.6-1.9,0.8-2.7c0.2-0.6,0.4-1.2,0.7-1.8c0.2-0.4,0.4-0.6,0.5-0.6c0.1,0,0.3,0,0.4,0.2c0.1,0.1,0.2,0.2,0.3,0.4
	c0,0.6-0.1,1.1-0.4,1.7c-0.3,0.8-0.6,1.6-0.9,2.4c-0.3,0.7-0.5,1.5-0.7,2.3c-0.2,0.6-0.2,1.3-0.1,2c0.1,0.5,0.3,0.8,0.7,0.7
	c0.3-0.1,0.5-0.2,0.7-0.5c0.4-0.5,0.7-0.9,1.1-1.4l0.1,0.7c-1,1.8-1.8,2.8-2.5,2.9c-0.2,0-0.5,0-0.6-0.2c-0.2-0.3-0.3-0.6-0.4-0.9
	C177.5,118,177.5,117.4,177.5,116.8z M177.8,114.5c-0.6,0.3-1.2,0.7-1.7,1.1c-0.4,0.3-0.8,0.6-1.1,1c-0.1,0.2-0.2,0.5-0.2,0.7
	c0,0.3,0,0.5,0,0.8c0,0.1,0.1,0.2,0.1,0.2c0.1,0.1,0.2,0.1,0.2,0.1c0.1,0,0.2-0.1,0.3-0.2c0.1-0.2,0.3-0.3,0.4-0.5
	c0.2-0.2,0.3-0.4,0.4-0.5s0.3-0.3,0.6-0.7s0.5-0.6,0.6-0.8c0.1-0.2,0.2-0.4,0.3-0.6C177.7,115,177.8,114.7,177.8,114.5L177.8,114.5z
	"/>
<path class="st2" d="M192.8,114.9l0.1,0.6c-0.4,0.6-0.8,1-1.1,1.4c-0.3,0.3-0.5,0.6-0.9,0.9c-0.2,0.2-0.4,0.3-0.7,0.3
	c-0.4,0-0.7-0.2-0.8-0.7c-0.1-0.5,0-1.1,0.2-1.6c0.2-0.7,0.5-1.5,0.9-2.2c-0.2,0.2-0.5,0.4-0.7,0.6c-0.2,0.2-0.4,0.4-0.5,0.7
	l-0.4,0.6c-0.3,0.5-0.6,1-0.9,1.4l-0.6,1c-0.1,0.1-0.2,0.2-0.3,0.2c-0.5,0.1-0.8-0.5-1-1.6c-0.1-0.4-0.1-0.8,0-1.3
	c0.1-0.7,0.3-1.3,0.6-1.9c0.8-1.7,1.4-3,2-4.1c0.4-0.8,0.9-1.7,1.5-2.4c0.4-0.6,0.7-0.8,0.9-0.8c0.2,0,0.4,0,0.5,0.1
	c0.1,0,0.2,0.1,0.2,0.2c0,0.3-0.1,0.5-0.2,0.8c-0.1,0.4-0.4,0.9-0.8,1.7l-0.9,1.7c-0.2,0.3-0.4,0.8-0.8,1.4s-0.7,1.2-1,1.7
	s-0.6,1-1,1.6l0.2,1.1c0.6-1,1.2-1.8,1.7-2.4c0.4-0.5,0.8-1,1.3-1.4c0.2-0.3,0.5-0.4,0.8-0.5c0.2,0,0.4,0.1,0.6,0.3
	c0.2,0.1,0.3,0.3,0.3,0.5c0,0.1,0,0.2-0.1,0.2c-0.3,0.6-0.6,1-0.8,1.4c-0.2,0.3-0.3,0.7-0.4,1c-0.1,0.2-0.1,0.5-0.1,0.7
	c0,0.2,0.2,0.4,0.4,0.4c0,0,0.1,0,0.1,0C191.3,116.2,191.9,115.7,192.8,114.9z"/>
<path class="st2" d="M194.2,115v0.2c0,0.3,0.2,0.6,0.4,0.8c0.2,0.2,0.5,0.3,0.7,0.2c0.3,0,0.6-0.1,0.9-0.3c0.3-0.2,0.6-0.4,0.9-0.6
	c0.3-0.3,0.6-0.6,1-1c0,0.2,0,0.4,0.1,0.5c-0.5,0.7-1,1.4-1.6,2c-0.5,0.5-1,0.7-1.7,0.8c-0.5,0.1-1-0.1-1.3-0.5
	c-0.4-0.5-0.7-1-0.7-1.6c-0.1-0.6,0-1.2,0.2-1.7c0.3-0.6,0.7-1.2,1.2-1.7c0.4-0.4,0.8-0.7,1.2-1c0.4-0.2,0.7-0.4,1.2-0.4
	c0.2,0,0.5,0,0.7,0.1c0.2,0.1,0.3,0.3,0.3,0.6c0,0.4,0,0.8-0.3,1.2c-0.3,0.5-0.7,0.9-1.1,1.2C195.6,114.3,194.9,114.7,194.2,115z
	 M194.2,114.5c0.5-0.2,0.9-0.5,1.3-0.9c0.3-0.3,0.5-0.6,0.7-1c0.1-0.2,0.2-0.4,0.2-0.7c0-0.1-0.1-0.2-0.2-0.2
	c-0.2,0-0.4,0.1-0.5,0.3c-0.2,0.2-0.5,0.4-0.6,0.6c-0.2,0.3-0.4,0.5-0.5,0.8C194.3,113.7,194.2,114.1,194.2,114.5L194.2,114.5z"/>
<path class="st2" d="M203.5,113.9c0,0.2,0,0.4,0.1,0.6c-0.6,0.7-1,1.2-1.4,1.6c-0.3,0.3-0.6,0.6-1,0.9c-0.3,0.2-0.6,0.3-1,0.4
	c-0.4,0-0.7-0.1-1-0.3c-0.3-0.3-0.6-0.6-0.8-1c-0.2-0.4-0.4-0.9-0.4-1.3c-0.1-0.4,0-0.7,0.1-1.1c0.2-0.5,0.5-0.9,0.9-1.3
	c0.4-0.6,0.9-1.1,1.5-1.5c0.3-0.3,0.7-0.5,1.2-0.6c0.2,0,0.4,0,0.6,0.2c0.2,0.1,0.3,0.3,0.3,0.6c0,0.3-0.1,0.6-0.2,0.8
	c-0.1,0.4-0.3,0.7-0.5,1c-0.2,0.3-0.4,0.4-0.5,0.4s-0.2-0.1-0.3-0.2v-0.1c0,0,0-0.1,0-0.1s0-0.1-0.1-0.1c-0.1,0-0.1,0-0.2,0.1
	c-0.5,0.5-0.9,0.8-1.1,1c-0.2,0.2-0.3,0.3-0.4,0.6c-0.1,0.2-0.1,0.4-0.1,0.6c0,0.3,0.2,0.6,0.5,0.8c0.3,0.2,0.6,0.3,0.9,0.3
	c0.5-0.1,0.9-0.3,1.3-0.6C202.3,114.9,202.9,114.4,203.5,113.9z"/>
<path class="st2" d="M210.1,113.4c0,0.2,0.1,0.4,0.1,0.6c-0.4,0.6-0.8,1-1.2,1.4c-0.3,0.3-0.6,0.6-0.9,0.8c-0.2,0.2-0.4,0.3-0.7,0.3
	c-0.5,0-0.7-0.2-0.8-0.8c0-0.5,0-1.1,0.2-1.6c0.3-0.7,0.6-1.4,1-2.1c-0.3,0.2-0.5,0.3-0.7,0.6c-0.2,0.2-0.4,0.4-0.6,0.7
	c-0.1,0.2-0.3,0.4-0.4,0.6c-0.3,0.5-0.6,0.9-0.9,1.4s-0.5,0.8-0.6,0.9c-0.1,0.1-0.2,0.2-0.3,0.2c-0.5,0-0.8-0.5-0.9-1.6
	c-0.1-0.4-0.1-0.8,0-1.3c0.1-0.7,0.3-1.3,0.7-1.9c0.8-1.6,1.6-3,2.2-4c0.5-0.8,1-1.6,1.6-2.4c0.4-0.5,0.7-0.8,0.9-0.8
	c0.2,0,0.4,0,0.5,0.1c0.1,0,0.2,0.1,0.2,0.2c0,0.3-0.1,0.5-0.2,0.8c-0.2,0.4-0.4,0.9-0.9,1.7l-0.9,1.7c-0.2,0.3-0.5,0.8-0.9,1.4
	l-1,1.6c-0.3,0.5-0.7,1-1.1,1.6c0.1,0.4,0.1,0.7,0.1,1.1c0.7-1,1.3-1.7,1.8-2.3c0.4-0.5,0.8-1,1.3-1.4c0.2-0.2,0.5-0.4,0.9-0.5
	c0.2,0,0.4,0.1,0.5,0.3c0.1,0.1,0.2,0.3,0.3,0.5c0,0.1,0,0.2-0.1,0.2c-0.4,0.5-0.7,1-0.9,1.3c-0.2,0.3-0.3,0.6-0.5,0.9
	c-0.1,0.2-0.1,0.5-0.1,0.7c0,0.3,0.2,0.4,0.4,0.4C208.6,114.6,209.2,114.2,210.1,113.4z"/>
<path class="st2" d="M211,111.7c0.7-0.8,1.5-1.5,2.4-2c0.6-0.4,1.2-0.6,1.9-0.7c0.1,0,0.3,0,0.4,0.1c0.1,0.1,0.2,0.2,0.3,0.3
	c0.1,0.1,0.1,0.2,0.1,0.3c0,0.1,0,0.2-0.1,0.2c-0.1,0.1-0.3,0.2-0.4,0.2l0.2,0.3c0.1,0.2,0.1,0.3,0.2,0.3c0,0.1,0.1,0.2,0.1,0.2
	c0,0.3-0.2,0.6-0.3,0.8c-0.3,0.4-0.4,0.7-0.5,0.9c-0.1,0.2-0.1,0.5-0.1,0.7c0,0.4,0.3,0.6,0.7,0.6s1-0.4,1.8-1.3l0.1,0.5
	c-1.3,1.7-2.3,2.6-3,2.7c-0.2,0-0.4,0-0.5-0.2c-0.1-0.2-0.2-0.4-0.2-0.7c0-0.7,0.1-1.4,0.3-2.1c-0.8,1-1.3,1.7-1.7,2.2
	c-0.2,0.3-0.6,0.6-1,0.7c-0.1,0-0.3-0.1-0.5-0.3c-0.2-0.2-0.5-0.5-0.6-0.8c-0.2-0.3-0.3-0.7-0.4-1.1c0-0.2,0-0.5,0-0.7
	c0-0.2,0.1-0.4,0.2-0.6C210.5,112.2,210.7,112,211,111.7z M215.2,110.5c-1.1,0.6-2.2,1.2-3.1,2c-0.5,0.4-0.8,1-0.8,1.6
	c0,0.2,0.1,0.3,0.2,0.4c0.1,0.1,0.2,0.2,0.3,0.2c0.1,0,0.2-0.1,0.3-0.2c0.6-0.4,1.1-0.9,1.6-1.5C214,112.4,214.5,111.5,215.2,110.5
	L215.2,110.5z"/>
<path class="st2" d="M232,112.6c-0.2-0.3-0.5-0.5-0.7-0.7c-0.3-0.2-0.7-0.4-1.1-0.5c-0.4-0.1-0.8-0.2-1.2-0.3
	c-1.2-0.1-2.4-0.5-3.5-1.1c-0.1-0.1-0.2-0.2-0.3-0.3c-0.1-0.1-0.2-0.3-0.2-0.4c0-0.5,0-1.1,0.1-1.6c0.1-0.5,0.3-0.9,0.6-1.3
	c0.6-0.7,1.4-1.1,2.3-1.4c1.3-0.4,2.6-0.6,3.9-0.6c0.7,0,1.3,0,2,0.2c0.5,0.1,0.8,0.3,0.8,0.6c0,0.3,0,0.7-0.1,1
	c-0.1,0.2-0.2,0.4-0.4,0.5c-0.1,0.1-0.4,0.2-0.7,0.3c-0.3,0.1-0.7,0.3-1,0.4c-0.3,0.1-0.5,0.3-0.7,0.4c-0.1,0.1-0.2,0.2-0.4,0.2
	c-0.1,0-0.1,0-0.1-0.1c0-0.2,0.1-0.3,0.3-0.5c0.2-0.2,0.5-0.4,0.8-0.6c0.3-0.2,0.5-0.3,0.5-0.3s-0.2-0.1-0.6-0.1
	c-1,0-2.1,0.1-3.1,0.4c-0.8,0.2-1.5,0.4-2.2,0.8c-0.5,0.3-0.8,0.7-0.7,1c0,0.2,0.2,0.4,0.4,0.4c0.2,0.1,0.8,0.2,1.5,0.4
	c0.7,0.2,1.4,0.4,2.1,0.6c0.7,0.3,1.4,0.6,2,1.1c0.4,0.3,0.7,0.8,0.7,1.3c0,0.3,0,0.7-0.2,1c-0.1,0.4-0.4,0.7-0.6,1
	c-0.3,0.3-0.6,0.5-1,0.7c-0.4,0.2-0.8,0.3-1.3,0.4c-0.6,0.2-1.1,0.3-1.7,0.4c-0.6,0.1-1.2,0.1-1.8,0.2c-0.9,0.1-1.7,0-2.5-0.2
	c-0.6-0.2-1-0.4-1-0.8c0-0.3,0.1-0.6,0.2-0.8c0.1-0.3,0.4-0.6,0.7-0.8c0.2-0.1,0.5-0.2,0.7-0.2c0.2,0,0.4,0,0.4,0.1c0,0,0,0,0,0.1
	h-0.1h-0.1l-0.3,0.1l-0.2,0.1c0,0-0.1,0.1-0.1,0.1c0,0.1,0.6,0.2,1.9,0.1c0.9,0,1.8-0.1,2.6-0.2c0.6-0.1,1.2-0.2,1.8-0.5
	C231.1,113.2,231.6,112.9,232,112.6z"/>
<path class="st2" d="M236.1,112.6c0,0.1,0,0.2,0,0.2c0,0.3,0.1,0.6,0.3,0.8c0.2,0.2,0.4,0.3,0.7,0.3c0.3,0,0.6-0.1,0.9-0.2
	c0.3-0.2,0.6-0.3,0.9-0.6c0.3-0.2,0.7-0.5,1.1-0.9v0.5c-0.5,0.7-1.1,1.3-1.8,1.9c-0.5,0.4-1.1,0.6-1.8,0.7c-0.5,0-1-0.2-1.3-0.6
	c-0.4-0.5-0.6-1.1-0.6-1.7c-0.1-0.6,0.1-1.2,0.3-1.7c0.3-0.6,0.8-1.2,1.3-1.6c0.4-0.4,0.8-0.7,1.3-0.9c0.4-0.2,0.8-0.3,1.2-0.3
	c0.2,0,0.5,0,0.7,0.2c0.2,0.1,0.3,0.3,0.3,0.6c0,0.4-0.1,0.8-0.4,1.1c-0.3,0.4-0.8,0.8-1.2,1.1C237.5,112,236.8,112.3,236.1,112.6z
	 M236.1,112c0.5-0.2,0.9-0.4,1.3-0.8c0.3-0.3,0.6-0.6,0.8-0.9c0.1-0.2,0.2-0.4,0.2-0.6c0-0.1-0.1-0.2-0.2-0.2
	c-0.2,0-0.4,0.1-0.5,0.2c-0.3,0.2-0.5,0.3-0.7,0.5c-0.2,0.2-0.4,0.5-0.6,0.8C236.2,111.4,236.1,111.7,236.1,112L236.1,112z"/>
<path class="st2" d="M240,112.9v-0.6c0.3-0.3,0.5-0.6,0.7-1c-0.2,0-0.3-0.1-0.4-0.2c-0.1-0.1-0.2-0.3-0.2-0.4c0-0.3,0.1-0.6,0.2-0.8
	c0.2-0.3,0.4-0.6,0.6-0.9c0.2-0.2,0.4-0.4,0.7-0.6c0.1,0,0.2-0.1,0.2-0.1c0.1,0,0.2,0.1,0.2,0.2c0,0.2-0.1,0.4-0.3,0.6
	c0.8-0.1,1.6-0.2,2.4-0.3c0.1,0,0.2,0,0.3,0c0.1,0.1,0.2,0.2,0.3,0.4c0.1,0.2,0.1,0.4,0.1,0.6c0,0.1,0,0.3-0.1,0.4
	c-0.1,0.1-0.3,0.3-0.5,0.6c-0.3,0.3-0.5,0.7-0.8,1.1c-0.2,0.3-0.2,0.6-0.3,0.9c0,0.3,0.2,0.4,0.6,0.4c0.7-0.2,1.3-0.6,1.9-1.1v0.6
	c-0.5,0.5-0.9,0.9-1.2,1.2c-0.3,0.3-0.6,0.5-0.9,0.7c-0.2,0.2-0.5,0.2-0.7,0.3c-0.3,0-0.5-0.1-0.6-0.3c-0.2-0.3-0.3-0.6-0.3-1
	c0-0.3,0-0.6,0.1-0.9c0.1-0.4,0.3-0.7,0.5-1c0.2-0.4,0.5-0.8,0.8-1.1l-0.6,0.1l-0.7,0.1l-0.5,0.1C241.2,111.7,240.6,112.4,240,112.9
	z"/>
<path class="st2" d="M246.6,112.3c0,0.3-0.1,0.5-0.1,0.7c0,0.1,0,0.2,0,0.3c0,0.3,0.2,0.5,0.4,0.5s0.9-0.5,1.8-1.5
	c0-0.5,0.1-0.9,0.4-1.3c0.2-0.5,0.5-0.9,0.9-1.3c0.3-0.4,0.6-0.6,0.8-0.6s0.4,0.2,0.4,0.5c0,0.3,0,0.5-0.1,0.8
	c-0.1,0.3-0.2,0.7-0.4,1c-0.2,0.3-0.4,0.7-0.7,1c0.2,0.3,0.3,0.4,0.5,0.4c0.2,0,0.3,0,0.4-0.1c0.2-0.1,0.4-0.3,0.6-0.4
	c0,0.2,0,0.4,0,0.6c-0.2,0.2-0.5,0.4-0.8,0.5c-0.2,0.1-0.5,0.1-0.7,0.1c-0.2,0-0.5-0.1-0.7-0.3c-0.5,0.5-0.9,1-1.4,1.4
	c-0.2,0.3-0.6,0.4-0.9,0.5c-0.5,0-0.9-0.3-1.1-0.7c-0.3-0.5-0.5-1-0.5-1.6c0.1-1.1,0.5-2,1.2-2.8c0.2-0.2,0.4-0.5,0.6-0.7
	c0.2-0.1,0.4-0.2,0.6-0.2c0.2,0,0.4,0,0.5,0.1c0.2,0.1,0.3,0.1,0.3,0.2c-0.1,0.5-0.2,0.9-0.5,1.3
	C247.6,111.4,247.1,111.9,246.6,112.3z"/>
<path class="st2" d="M255.7,112.4c0,0.2,0,0.4,0,0.7c-0.4,0.6-1,1.2-1.6,1.6c-0.4,0.3-0.8,0.5-1.3,0.5c-0.5,0-0.9-0.3-1.1-0.8
	c-0.3-0.5-0.4-1.1-0.4-1.7c0-0.2,0-0.4,0-0.7c0-0.2,0.1-0.4,0.1-0.5c0.1-0.1,0.2-0.3,0.3-0.6c0.8-1.3,1.6-1.9,2.3-1.9
	c0.4,0,0.6,0.2,0.6,0.4c0,0.3-0.1,0.6-0.3,0.9c-0.2,0.3-0.4,0.6-0.6,0.8c-0.4,0.3-0.7,0.6-1,1c-0.2,0.2-0.2,0.4-0.2,0.7
	c0,0.2,0.1,0.4,0.3,0.5c0.2,0.1,0.4,0.2,0.6,0.2c0.3,0,0.6-0.1,0.9-0.3C254.8,113.1,255.3,112.8,255.7,112.4z M255,108.4
	c-0.2,0-0.3-0.1-0.4-0.2c-0.1-0.1-0.2-0.3-0.2-0.4c0-0.3,0.1-0.6,0.4-0.9c0.2-0.3,0.5-0.4,0.8-0.4c0.2,0,0.3,0.1,0.5,0.2
	c0.1,0.1,0.2,0.3,0.2,0.5c0,0.3-0.1,0.6-0.4,0.8C255.6,108.3,255.3,108.4,255,108.4L255,108.4z"/>
<path class="st2" d="M261.1,112.6c0,0.2,0,0.4,0,0.6c-0.6,0.6-1.1,1-1.5,1.4c-0.3,0.3-0.7,0.5-1.1,0.8c-0.3,0.2-0.7,0.2-1,0.3
	c-0.3,0-0.7-0.2-0.9-0.4c-0.3-0.3-0.5-0.6-0.7-1c-0.2-0.4-0.3-0.9-0.3-1.3c0-0.4,0.1-0.7,0.2-1.1c0.3-0.4,0.6-0.8,1-1.2
	c0.5-0.5,1.1-0.9,1.7-1.3c0.4-0.3,0.8-0.4,1.2-0.4c0.2,0,0.4,0.1,0.6,0.2c0.2,0.1,0.2,0.3,0.2,0.6c0,0.3-0.1,0.6-0.3,0.8
	c-0.2,0.3-0.4,0.6-0.6,0.9c-0.2,0.3-0.4,0.4-0.6,0.4c-0.1,0-0.2-0.1-0.2-0.2c0,0,0,0,0,0c0,0,0-0.1,0-0.1v-0.1c0-0.1,0-0.1-0.1-0.1
	c-0.1,0-0.1,0-0.2,0c-0.6,0.4-1,0.7-1.2,0.8c-0.2,0.1-0.4,0.3-0.5,0.5c-0.1,0.2-0.2,0.3-0.2,0.5c0,0.3,0.1,0.6,0.4,0.9
	c0.2,0.2,0.6,0.4,0.9,0.3c0.5,0,0.9-0.1,1.4-0.4C259.9,113.5,260.5,113.1,261.1,112.6z"/>
<path class="st2" d="M265.4,112.8v0.6c-0.5,0.6-1,1.1-1.6,1.6c-0.4,0.3-0.8,0.5-1.3,0.5c-0.5,0-0.9-0.3-1.1-0.8
	c-0.2-0.5-0.4-1.1-0.4-1.7c0-0.2,0-0.4,0.1-0.7c0-0.2,0.1-0.3,0.2-0.5c0.1-0.2,0.2-0.4,0.4-0.6c0.8-1.3,1.6-1.9,2.3-1.8
	c0.4,0,0.6,0.2,0.6,0.4c0,0.3-0.2,0.6-0.3,0.9c-0.2,0.3-0.4,0.6-0.6,0.8c-0.5,0.5-0.9,0.8-1,1c-0.2,0.2-0.2,0.4-0.2,0.7
	c0,0.2,0.1,0.4,0.3,0.5c0.2,0.1,0.4,0.2,0.6,0.2c0.3,0,0.7-0.1,0.9-0.3C264.5,113.5,265,113.1,265.4,112.8z M264.7,108.8
	c-0.2,0-0.3-0.1-0.4-0.2c-0.1-0.1-0.2-0.3-0.2-0.4c0-0.3,0.1-0.6,0.4-0.8c0.2-0.3,0.5-0.4,0.8-0.4c0.2,0,0.3,0.1,0.5,0.2
	c0.1,0.1,0.2,0.3,0.2,0.5c0,0.3-0.1,0.6-0.4,0.8C265.3,108.7,265,108.8,264.7,108.8L264.7,108.8z"/>
<path class="st2" d="M271.1,113.1c0,0.2,0,0.4,0,0.6c-0.3,0.3-0.6,0.5-1,0.7c-0.3,0.1-0.7,0.1-1,0.1c-0.8,0.9-1.5,1.3-2.1,1.3
	c-0.3,0-0.7-0.2-0.9-0.4c-0.3-0.2-0.5-0.6-0.7-0.9c-0.2-0.4-0.3-0.8-0.3-1.3c0-0.4,0.1-0.9,0.4-1.2c0.3-0.5,0.6-0.9,1-1.2
	c0.4-0.4,0.8-0.7,1.3-0.9c0.4-0.2,0.8-0.3,1.3-0.3c0.2,0,0.5,0.1,0.7,0.2c0.1,0.1,0.2,0.2,0.3,0.4c0,0.2-0.1,0.3-0.2,0.4
	c0.2,0,0.3,0.1,0.5,0.3c0.1,0.2,0.2,0.4,0.1,0.6c0,0.4-0.1,0.7-0.2,1.1c-0.1,0.4-0.3,0.8-0.5,1.2l0.2,0.2h0.1c0.1,0,0.2,0,0.3-0.1
	c0.1,0,0.2-0.1,0.3-0.1L271.1,113.1z M269.2,110.7c-0.5,0.3-0.9,0.5-1.3,0.7c-0.3,0.2-0.6,0.4-0.9,0.7c-0.2,0.2-0.4,0.4-0.5,0.7
	c-0.1,0.7-0.2,1-0.2,1c0,0.4,0.3,0.6,0.8,0.6c0.5-0.1,0.9-0.3,1.3-0.6c-0.1-0.3-0.2-0.5-0.2-0.8c0-0.4,0.1-0.8,0.2-1.1
	C268.7,111.5,269,111.1,269.2,110.7z"/>
<path class="st2" d="M272.9,115.9c-0.2,0-0.4-0.1-0.5-0.3c-0.2-0.2-0.3-0.4-0.3-0.7c0-0.4,0.1-0.8,0.3-1.2c0.2-0.4,0.4-0.7,0.6-0.7
	c0.1,0,0.3,0.1,0.4,0.2c0.1,0.1,0.3,0.2,0.4,0.4c0.1,0.2,0.1,0.4,0.1,0.6c0,0.4-0.1,0.8-0.3,1.1
	C273.4,115.7,273.2,115.9,272.9,115.9z M277.5,105c0.1,0,0.2,0,0.3,0c0.2,0,0.5,0.1,0.7,0.2c0.2,0.1,0.4,0.3,0.6,0.6l-1.4,1.9
	c-0.7,0.9-1.1,1.5-1.5,2s-0.6,0.9-1,1.3s-0.6,0.8-0.8,1.1c0.1,0,0.2,0.1,0.2,0.2c0,0.1-0.1,0.3-0.2,0.3c-0.1,0.1-0.2,0.2-0.4,0.2
	c-0.1,0-0.3-0.1-0.5-0.4c-0.2-0.2-0.3-0.4-0.3-0.6c0-0.1,0.1-0.3,0.1-0.4c0.1-0.2,0.3-0.5,0.5-0.9s0.5-0.8,0.8-1.3l1.1-1.7
	C276.6,106.2,277.2,105.4,277.5,105z"/>
<path class="st2" d="M131.5,3c0.9,0,1.9,0.1,2.7,0.6c0.7,0.4,1.3,0.9,1.7,1.6c0.2,0.4,0.4,0.8,0.5,1.2c0,0.1,0,0.2,0,0.3
	c0,0.1,0,0.2-0.1,0.3c0,0.1-0.1,0.1-0.2,0.1h-1.7c-0.1,0-0.2,0-0.3-0.1c-0.1-0.1-0.2-0.2-0.2-0.3c0-0.1-0.1-0.2-0.1-0.3l-0.3-0.4
	c-0.1-0.1-0.2-0.3-0.4-0.3c-0.2-0.2-0.5-0.3-0.7-0.3h-0.2H132h-0.1c-0.2,0-0.3,0-0.5,0l-0.4,0l-0.2,0c-0.1,0-0.1,0-0.2,0.1
	c-0.3,0.1-0.5,0.2-0.8,0.4c-0.2,0.2-0.4,0.4-0.6,0.6c-0.1,0.2-0.3,0.4-0.4,0.6c-0.1,0.2-0.2,0.5-0.2,0.8c0,0.1-0.1,0.2-0.1,0.4
	c0,0.1,0,0.2,0,0.3v0.2c0,0.1,0,0.1,0,0.2c0,0.1,0,0.1,0,0.2c0,0.2,0,0.4,0,0.5c0,0.2,0,0.3,0.1,0.5c0,0,0,0.1,0,0.1
	c0,0,0,0.1,0,0.1c0.1,0.5,0.3,1,0.6,1.4c0.3,0.4,0.6,0.7,1.1,0.9l0.3,0.1l0.3,0.1c0.1,0,0.1,0,0.2,0c0.1,0,0.1,0,0.2,0
	c0.1,0,0.2,0,0.2,0c0.1,0,0.2,0,0.3,0h0.3c0,0,0.1,0,0.1,0c0,0,0.1,0,0.1,0l0.4-0.1c0.1,0,0.3-0.1,0.4-0.1c0.2-0.1,0.5-0.3,0.6-0.6
	c0.2-0.2,0.3-0.5,0.4-0.8c0-0.1,0.1-0.3,0.1-0.4c0-0.1,0-0.3-0.1-0.3c-0.1,0-0.2-0.1-0.2-0.1h-1.3c-0.1,0-0.1,0-0.2,0h-0.1h-0.1
	c-0.1,0-0.1,0-0.1-0.1c-0.1,0-0.1-0.1-0.1-0.2c0-0.1,0-0.2,0-0.3V9.5c0-0.1,0-0.2,0-0.3c0-0.1,0-0.2,0-0.2c0-0.1,0-0.1,0-0.2
	c0-0.1,0.1-0.2,0.2-0.2h0.2h0.2c0,0,0.1,0,0.1,0h3.5c0.2,0,0.3,0,0.5,0.1c0.1,0.1,0.1,0.2,0.1,0.3v4.7c0,0.2,0,0.4,0,0.6
	c0,0.2-0.1,0.3-0.2,0.4c-0.1,0-0.2,0-0.2,0h-0.3h-0.6c-0.1,0-0.3-0.1-0.3-0.3c0-0.1-0.1-0.2-0.1-0.3c0-0.1-0.1-0.2-0.1-0.3l-0.1-0.1
	c0,0-0.1,0-0.1,0c-0.1,0-0.2,0.1-0.2,0.1c-0.1,0.1-0.1,0.1-0.2,0.2l-0.3,0.2l-0.3,0.2c-0.1,0.1-0.3,0.2-0.4,0.2l-0.5,0.2h-0.2h-0.2
	h-0.3c-0.1,0-0.2,0-0.3,0c-0.1,0-0.1,0-0.2,0h-0.2h-0.2h-0.1h-0.3l-0.3-0.1h-0.3l-0.2-0.1l-0.2-0.1c-0.3-0.1-0.6-0.2-0.8-0.3
	c-0.6-0.3-1.1-0.7-1.5-1.2c-0.4-0.5-0.8-1.1-1-1.7c-0.1-0.1-0.1-0.3-0.2-0.4c0-0.2-0.1-0.3-0.1-0.4c0,0,0-0.1,0-0.1c0,0,0-0.1,0-0.1
	c0-0.1,0-0.2,0-0.2c0-0.1,0-0.2,0-0.3c0,0,0-0.1,0-0.1c0,0,0-0.1,0-0.1V9.2c0-0.2,0-0.3,0-0.5V8.6c0-0.1,0-0.1,0-0.2
	c0-0.1,0-0.1,0-0.2c0-0.1,0-0.2,0-0.3c0-0.1,0-0.2,0-0.3c0-0.1,0.1-0.2,0.1-0.3c0-0.1,0.1-0.2,0.1-0.3c0.1-0.2,0.1-0.3,0.2-0.4
	c0-0.1,0.1-0.3,0.2-0.4c0.1-0.2,0.1-0.3,0.2-0.4c0.1-0.1,0.2-0.3,0.3-0.4c0.3-0.4,0.7-0.8,1.1-1.1c0.4-0.3,0.9-0.6,1.5-0.8
	c0.1,0,0.2-0.1,0.3-0.1l0.4-0.1c0.1,0,0.1,0,0.2,0c0.1,0,0.1,0,0.2,0c0.1,0,0.1,0,0.2,0c0.1,0,0.1,0,0.2,0c0,0,0.1,0,0.1,0
	C131.4,3.1,131.5,3.1,131.5,3z"/>
<path class="st2" d="M148.2,14.2c0,0.1,0,0.1,0,0.2c0,0,0,0.1-0.1,0.1c-0.1,0.1-0.2,0.1-0.3,0.1h-1.2c-0.1,0-0.3,0-0.4,0
	c-0.1,0-0.2-0.1-0.3-0.2c-0.1-0.2-0.1-0.3-0.1-0.5c0-0.2,0-0.4-0.1-0.6c0,0,0-0.1,0-0.1c0,0,0-0.1,0-0.1c0-0.1,0-0.3,0-0.4
	c0-0.1,0-0.3,0-0.4c0,0,0-0.1,0-0.1l-0.1-0.4c0-0.1,0-0.2-0.1-0.4c-0.1-0.2-0.2-0.4-0.3-0.6c-0.1-0.2-0.3-0.3-0.5-0.4l-0.2-0.1h-0.2
	c-0.2-0.1-0.4-0.1-0.7-0.1h-2.1h-0.2c-0.1,0-0.1,0-0.2,0.1c-0.1,0.1-0.1,0.3-0.1,0.5c0,0.2,0,0.4,0,0.6v2.3c0,0.1,0,0.2,0,0.3v0.3
	c0,0.1,0,0.1,0,0.2c0,0.1-0.1,0.2-0.2,0.2c-0.1,0-0.1,0-0.2,0h-1.5c-0.2,0-0.3,0-0.4-0.1c-0.1-0.1-0.1-0.2-0.1-0.3V4.1
	c0-0.1,0-0.2,0-0.4c0-0.1,0-0.2,0.1-0.3c0.1-0.1,0.1-0.1,0.2-0.2H139c0,0,0.1,0,0.1,0h5.9c0.1,0,0.3,0,0.4,0.1c0.1,0,0.1,0,0.2,0
	c0.1,0,0.1,0,0.2,0l0.2,0.1c0.1,0,0.2,0,0.2,0.1c0.3,0.1,0.5,0.3,0.7,0.4c0.2,0.2,0.4,0.4,0.6,0.6c0,0.1,0.1,0.1,0.1,0.2
	c0,0.1,0.1,0.1,0.1,0.2c0.1,0.1,0.2,0.3,0.2,0.5c0.1,0.2,0.1,0.3,0.1,0.5c0,0,0,0.1,0,0.1c0,0,0,0.1,0,0.1v0.1c0,0.1,0,0.2,0,0.3
	c0,0.1,0,0.2,0,0.3c0,0.1,0,0.2,0,0.2c0,0.1,0,0.1,0,0.2c0,0.2-0.1,0.3-0.2,0.4c-0.1,0.1-0.1,0.3-0.2,0.4l-0.1,0.1
	c0,0-0.1,0.1-0.1,0.1l-0.1,0.1c0,0-0.1,0.1-0.1,0.1l-0.2,0.2c-0.1,0.1-0.1,0.1-0.2,0.2c0,0-0.1,0.1-0.1,0.1c0,0-0.1,0.1-0.1,0.1
	c0,0,0,0.1,0,0.2l0.1,0.1l0.3,0.3c0.1,0.1,0.2,0.2,0.3,0.3c0.1,0.2,0.2,0.4,0.3,0.6c0.1,0.2,0.1,0.4,0.2,0.6c0,0.1,0,0.2,0,0.3
	c0,0.1,0,0.2,0,0.3c0,0.1,0,0.1,0,0.2c0,0.1,0,0.1,0,0.2c0,0,0,0.1,0,0.1c0,0,0,0.1,0,0.1c0,0,0,0.1,0,0.1c0,0,0,0.1,0,0.1
	c0,0.1,0,0.2,0,0.3c0,0.1,0,0.2,0,0.3v0.3l0.1,0.3L148.2,14.2z M145.6,7.1c0-0.1,0-0.3,0-0.4c0-0.1,0-0.3-0.1-0.4c0,0,0-0.1,0-0.1
	c0,0,0-0.1,0-0.1c-0.1-0.3-0.4-0.6-0.7-0.7c-0.2-0.1-0.4-0.1-0.6-0.1h-0.7h-1.9c0,0,0,0-0.1,0h-0.1c-0.1,0-0.2,0.1-0.3,0.2
	c-0.1,0.1-0.1,0.2-0.1,0.3v2.3c0,0.1,0,0.2,0.1,0.3c0.1,0.1,0.1,0.1,0.2,0.1c0.1,0,0.2,0,0.3,0.1c0.1,0,0.2,0,0.4,0h1.5
	c0.1,0,0.1,0,0.2,0h0.2c0.1,0,0.2,0,0.3,0h0.2c0.2,0,0.3-0.1,0.5-0.2c0.1-0.1,0.3-0.2,0.4-0.3c0.1-0.1,0.1-0.2,0.1-0.3
	C145.6,7.4,145.6,7.2,145.6,7.1L145.6,7.1z"/>
<path class="st2" d="M150.6,3.2h1.7c0.1,0,0.2,0,0.2,0.1c0.1,0.1,0.1,0.2,0.1,0.3c0,0.1,0,0.3,0,0.4v5.5c0,0,0,0.1,0,0.1
	c0,0,0,0.1,0,0.1v0.3c0,0.1,0,0.2,0,0.3c0,0.1,0,0.2,0,0.3c0,0.1,0,0.1,0,0.2l0.1,0.3c0,0.1,0,0.2,0.1,0.4c0.1,0.3,0.3,0.5,0.5,0.7
	c0.2,0.2,0.5,0.3,0.7,0.4l0.3,0.1h0.3h0.1c0,0,0.1,0,0.1,0h0.2c0.1,0,0.1,0,0.2,0h0.2l0.3-0.1l0.2-0.1c0.1,0,0.2-0.1,0.4-0.1
	c0.2-0.1,0.4-0.2,0.5-0.3c0.1-0.1,0.3-0.3,0.3-0.5c0.1-0.3,0.2-0.7,0.2-1c0-0.4,0-0.8,0-1.2V4.3c0-0.2,0-0.3,0-0.5
	c0-0.1,0-0.3,0.1-0.4c0.1-0.1,0.1-0.1,0.2-0.1h0.3h1.3c0.1,0,0.2,0,0.2,0c0.1,0,0.2,0.1,0.3,0.2c0.1,0.1,0.1,0.2,0.1,0.4
	c0,0.2,0,0.3,0,0.4v5.3c0,0.4,0,0.8,0,1.2c0,0.3-0.1,0.7-0.1,1c-0.1,0.5-0.3,0.9-0.6,1.3c-0.2,0.4-0.5,0.7-0.9,0.9
	c-0.4,0.3-0.7,0.4-1.2,0.6l-0.3,0.1l-0.3,0.1h-0.2H156h-0.4h-0.5c-0.9,0-1.7-0.1-2.6-0.4c-0.6-0.2-1.2-0.6-1.6-1.1
	c-0.1-0.2-0.3-0.4-0.3-0.6c-0.1-0.2-0.2-0.4-0.3-0.7c0,0,0-0.1,0-0.1c0,0,0-0.1,0-0.1c-0.1-0.3-0.1-0.7-0.1-1v-7c0-0.1,0-0.2,0-0.3
	c0.1-0.1,0.2-0.1,0.3-0.2L150.6,3.2L150.6,3.2z"/>
<path class="st2" d="M170.3,4.7c0.2,0.3,0.4,0.7,0.5,1.1c0.1,0.5,0.2,1,0.1,1.5c0,0.2-0.1,0.4-0.1,0.7c0,0.2-0.1,0.4-0.2,0.6
	c0,0,0,0.1-0.1,0.1l-0.1,0.1L170.5,9c0,0.1-0.1,0.1-0.1,0.2c-0.2,0.3-0.5,0.5-0.8,0.7c-0.3,0.2-0.6,0.4-1,0.5
	c-0.1,0-0.2,0.1-0.4,0.1c-0.1,0-0.3,0-0.4,0.1c-0.1,0-0.1,0-0.2,0h-0.2H165c-0.1,0-0.3,0-0.4,0.1c-0.1,0.1-0.2,0.2-0.2,0.4v2.7
	c0,0.1,0,0.3,0,0.4c0,0.1,0,0.2-0.1,0.4c-0.1,0.1-0.2,0.2-0.3,0.2c-0.1,0-0.2,0-0.2,0h-1.5c-0.1,0-0.2,0-0.2-0.1
	c-0.1-0.1-0.1-0.2-0.1-0.3c0-0.1,0-0.2,0-0.4V4.4c0-0.1,0-0.3,0-0.5c0-0.1,0-0.3,0.1-0.4c0.1-0.1,0.1-0.1,0.2-0.2h0.1
	c0,0,0.1,0,0.1,0h4.9c0.1,0,0.2,0,0.3,0h0.1c0.1,0,0.1,0,0.2,0h0.2c0,0,0.1,0,0.1,0h0.1c0.2,0.1,0.3,0.1,0.5,0.2
	c0.2,0.1,0.3,0.1,0.5,0.2c0.1,0,0.1,0.1,0.2,0.1l0.2,0.1l0.1,0.1c0,0,0.1,0.1,0.1,0.1l0.1,0.1C170.2,4.4,170.3,4.5,170.3,4.7z
	 M168.6,7.3c0-0.1,0-0.3,0-0.4c0-0.1,0-0.3,0-0.4c-0.1-0.2-0.1-0.4-0.2-0.5c-0.1-0.2-0.3-0.3-0.4-0.4c-0.2-0.1-0.4-0.2-0.6-0.2
	c-0.3-0.1-0.5-0.1-0.8-0.1h-1.6h-0.1h-0.1c-0.1,0-0.2,0.1-0.2,0.2c0,0.1-0.1,0.2-0.1,0.3v2.4c0,0.1,0,0.3,0.1,0.4
	c0,0.1,0.1,0.1,0.2,0.1c0.1,0,0.2,0.1,0.3,0.1h0.7c0.5,0,1,0,1.6-0.1c0.4,0,0.8-0.2,1.1-0.6c0.1-0.1,0.1-0.2,0.2-0.3
	C168.5,7.6,168.5,7.5,168.6,7.3z"/>
<path class="st2" d="M183.3,8.6c0,0.1,0,0.2,0,0.3c0,0.1,0,0.2,0,0.3v0.2c0,0.1,0,0.2,0,0.3c0,0.1,0,0.2,0,0.4c0,0.1,0,0.1,0,0.2
	c0,0.1,0,0.1-0.1,0.2l-0.1,0.6c0,0.2-0.1,0.4-0.2,0.5c-0.3,0.7-0.7,1.3-1.3,1.9c-0.6,0.5-1.3,0.9-2,1.1c-0.1,0-0.2,0.1-0.4,0.1
	l-0.4,0.1c-0.1,0-0.1,0-0.2,0h-0.2l-0.5,0.1h-0.2h-0.2h-0.1c0,0-0.1,0-0.1,0H177c-0.1,0-0.2,0-0.2,0h-0.2l-0.3-0.1l-0.3-0.1
	l-0.4-0.1l-0.4-0.1c-0.6-0.3-1.2-0.6-1.6-1.1c-0.5-0.5-0.8-1-1.1-1.6c-0.1-0.1-0.1-0.3-0.2-0.5c0-0.2-0.1-0.3-0.1-0.5
	c0,0,0-0.1,0-0.1c0,0,0-0.1,0-0.1c0-0.1,0-0.2,0-0.2c0-0.1,0-0.2-0.1-0.3c0,0,0-0.1,0-0.1c0,0,0-0.1,0-0.1c0-0.1,0-0.1,0-0.2
	c0-0.1,0-0.1,0-0.2c0-0.1,0-0.2,0-0.3c0-0.1,0-0.2,0-0.2c0-0.1,0-0.1,0-0.2c0,0,0-0.1,0-0.2V8.4c0-0.1,0-0.1,0-0.2
	c0-0.1,0-0.1,0-0.2c0-0.1,0-0.1,0-0.2c0-0.1,0-0.1,0-0.2c0.1-0.2,0.1-0.4,0.1-0.5c0-0.2,0.1-0.4,0.1-0.5c0.1-0.2,0.2-0.4,0.2-0.5
	c0.1-0.2,0.2-0.3,0.3-0.5c0.3-0.5,0.7-0.9,1.1-1.3c0.5-0.4,1-0.7,1.5-0.9c0.1-0.1,0.3-0.1,0.4-0.1l0.5-0.1c0,0,0.1,0,0.1,0h0.1h0.5
	c0,0,0.1,0,0.1,0c0,0,0.1,0,0.1,0c0.7,0,1.4,0,2,0.2c0.5,0.2,1,0.4,1.5,0.7l0.4,0.3c0.1,0.1,0.3,0.2,0.4,0.4l0.2,0.2l0.1,0.2
	l0.4,0.5c0.1,0.2,0.2,0.4,0.3,0.6c0.1,0.2,0.1,0.3,0.2,0.4l0.1,0.4c0,0.1,0.1,0.2,0.1,0.3c0,0.1,0.1,0.2,0.1,0.3c0,0.1,0,0.1,0,0.2
	c0,0.1,0,0.1,0,0.2c0,0.1,0,0.1,0,0.2C183.2,8.4,183.2,8.5,183.3,8.6L183.3,8.6z M180.8,9.2c0-0.2,0-0.3,0-0.5V8.5c0,0,0-0.1,0-0.1
	c0,0,0-0.1,0-0.1c0-0.1,0-0.2,0-0.2c0-0.1,0-0.2,0-0.2c0-0.1,0-0.1,0-0.2c0-0.1-0.1-0.2-0.1-0.4c0-0.1-0.1-0.2-0.1-0.3
	c-0.2-0.5-0.6-1-1-1.3c-0.5-0.4-1.2-0.5-1.8-0.5h-0.1c0,0-0.1,0-0.1,0c0,0-0.1,0-0.1,0l-0.5,0.1c-0.1,0-0.2,0.1-0.3,0.1
	c-0.4,0.2-0.8,0.4-1.1,0.8c-0.3,0.4-0.5,0.8-0.6,1.2c0,0.1-0.1,0.2-0.1,0.3c0,0.1,0,0.2-0.1,0.3c0,0,0,0.1,0,0.1c0,0,0,0.1,0,0.1
	c0,0.1,0,0.1,0,0.2c0,0.1,0,0.1,0,0.2c0,0.1,0,0.2,0,0.3c0,0.1,0,0.2,0,0.3v0.2c0,0,0,0.1,0,0.1c0,0,0,0.1,0,0.1c0,0,0,0.1,0,0.1
	c0,0,0,0.1,0,0.1c0,0,0,0.2,0.1,0.3c0,0.1,0,0.2,0.1,0.3c0.1,0.3,0.3,0.6,0.4,0.9c0.2,0.3,0.4,0.5,0.6,0.7c0,0.1,0.1,0.1,0.2,0.1
	l0.2,0.1c0.1,0.1,0.2,0.1,0.4,0.2l0.4,0.1c0,0,0.1,0,0.1,0h0.1h0.2h0.5c0,0,0.1,0,0.1,0l0.3-0.1c0.1,0,0.2,0,0.3-0.1
	c0.4-0.2,0.8-0.4,1.1-0.7c0.3-0.3,0.5-0.7,0.7-1.1c0.1-0.1,0.1-0.2,0.1-0.4c0-0.1,0.1-0.3,0.1-0.4V9.6c0,0,0-0.1,0-0.1L180.8,9.2
	L180.8,9.2z"/>
<path class="st2" d="M189.9,3.3h1.7c0.1,0,0.2,0,0.3,0.1c0.1,0.1,0.1,0.2,0.1,0.3v7.6c0,0.1,0,0.2,0,0.3c0,0.1,0,0.2,0,0.2v0.4
	c0,0.1,0,0.1,0,0.2c0.1,0.1,0.3,0.2,0.4,0.2h4.4h0.3c0.1,0,0.1,0,0.2,0.1c0.1,0.1,0.1,0.2,0.1,0.2v1c0,0.1,0,0.2,0,0.2
	c0,0.1,0,0.1,0,0.2c0,0.1-0.1,0.1-0.2,0.2c-0.1,0.1-0.2,0.1-0.2,0.1h-6.9c-0.1,0-0.3,0-0.4,0c-0.1,0-0.2-0.1-0.2-0.1
	c-0.1-0.1-0.1-0.2-0.1-0.2V4c0-0.1,0-0.2,0-0.3c0-0.1,0-0.2,0.1-0.2c0.1-0.1,0.1-0.1,0.3-0.2h0.1C189.7,3.3,189.8,3.4,189.9,3.3
	C189.8,3.4,189.9,3.3,189.9,3.3L189.9,3.3z"/>
<path class="st2" d="M209.5,8.6c0,0.1,0,0.2,0,0.3c0,0.1,0,0.2,0,0.3v0.2c0,0.1,0,0.2,0,0.3c0,0.1,0,0.2,0,0.4c0,0.1,0,0.1-0.1,0.2
	c0,0.1,0,0.1,0,0.2c-0.1,0.2-0.1,0.4-0.1,0.6c0,0.2-0.1,0.4-0.2,0.5c-0.3,0.7-0.7,1.3-1.3,1.9c-0.6,0.5-1.3,0.9-2,1.1
	c-0.1,0-0.2,0.1-0.4,0.1l-0.4,0.1c-0.1,0-0.1,0-0.2,0h-0.2l-0.5,0.1H204h-0.2h-0.2c0,0-0.1,0-0.1,0h-0.2c-0.1,0-0.2,0-0.2,0h-0.2
	l-0.3-0.1l-0.3-0.1l-0.4-0.1l-0.4-0.1c-0.6-0.3-1.2-0.7-1.6-1.2c-0.5-0.5-0.8-1-1.1-1.6c-0.1-0.2-0.1-0.3-0.2-0.5
	c0-0.2-0.1-0.3-0.1-0.5c0,0,0-0.1,0-0.1c0,0,0-0.1,0-0.1c0-0.1,0-0.2-0.1-0.2c0-0.1,0-0.2,0-0.3c0,0,0-0.1,0-0.2c0,0,0-0.1,0-0.1
	c0-0.1,0-0.1,0-0.2c0-0.1,0-0.1,0-0.2c0-0.1,0-0.2,0-0.3c0-0.1,0-0.2,0-0.2c0-0.1,0-0.1,0-0.2c0,0,0-0.1,0-0.1V8.4
	c0-0.1,0-0.1,0-0.2c0-0.1,0-0.1,0-0.2c0-0.1,0-0.1,0-0.2c0-0.1,0-0.1,0-0.2c0.1-0.2,0.1-0.4,0.1-0.5c0-0.2,0.1-0.4,0.1-0.5l0.2-0.5
	c0.1-0.2,0.2-0.4,0.3-0.5c0.3-0.5,0.6-0.9,1-1.3c0.5-0.4,1-0.7,1.5-0.9c0.1-0.1,0.3-0.1,0.4-0.1l0.4-0.1c0,0,0.1,0,0.1,0h0.1h0.5
	c0,0,0.1,0,0.1,0s0.1,0,0.1,0c0.7-0.1,1.3,0,2,0.1c0.5,0.2,1,0.4,1.5,0.7l0.4,0.3c0.1,0.1,0.3,0.2,0.4,0.4l0.2,0.2l0.1,0.2l0.4,0.5
	c0.1,0.2,0.2,0.4,0.3,0.6c0.1,0.2,0.1,0.3,0.2,0.4c0,0.1,0.1,0.3,0.1,0.4c0,0.1,0.1,0.2,0.1,0.3c0,0.1,0,0.2,0.1,0.3
	c0,0.1,0,0.1,0,0.2c0,0.1,0,0.1,0,0.2c0,0.1,0,0.1,0,0.2c0,0.1,0,0.1,0,0.2L209.5,8.6z M207,9.2c0-0.2,0-0.3,0-0.5V8.5
	c0,0,0-0.1,0-0.1c0,0,0-0.1,0-0.2c0-0.1,0-0.2,0-0.2c0-0.1,0-0.2,0-0.2c0-0.1,0-0.1,0-0.2c0-0.1-0.1-0.2-0.1-0.3
	c0-0.1-0.1-0.2-0.1-0.4c-0.2-0.5-0.6-1-1-1.3c-0.5-0.4-1.2-0.5-1.8-0.5h-0.1c0,0-0.1,0-0.1,0c0,0-0.1,0-0.1,0l-0.3,0.1
	c-0.1,0-0.2,0.1-0.3,0.1c-0.4,0.2-0.8,0.4-1.1,0.8c-0.3,0.4-0.5,0.8-0.6,1.2c0,0.1-0.1,0.2-0.1,0.3c0,0.1,0,0.2-0.1,0.3
	c0,0,0,0.1,0,0.1c0,0,0,0.1,0,0.1c0,0.1,0,0.1,0,0.2c0,0.1,0,0.1,0,0.2c0,0.1,0,0.2,0,0.3c0,0.1,0,0.2,0,0.3v0.2c0,0,0,0.1,0,0.1
	c0,0,0,0.1,0,0.1c0,0,0,0.1,0,0.1c0,0,0,0.1,0,0.1c0,0.1,0,0.3,0,0.4c0,0.1,0,0.2,0.1,0.3c0.1,0.3,0.3,0.6,0.4,0.9
	c0.2,0.3,0.4,0.5,0.6,0.7c0,0.1,0.1,0.1,0.2,0.1l0.2,0.1c0.1,0.1,0.2,0.1,0.4,0.2l0.4,0.1c0.1,0,0.1,0,0.2,0h0.1c0.1,0,0.1,0,0.2,0
	h0.5c0,0,0.1,0,0.1,0l0.3-0.1c0.1,0,0.2,0,0.3-0.1c0.4-0.2,0.8-0.4,1.1-0.7c0.3-0.3,0.5-0.7,0.6-1.1c0.1-0.1,0.1-0.2,0.1-0.4
	c0-0.1,0.1-0.3,0.1-0.4l0.1-0.4c0,0,0-0.1,0-0.1L207,9.2L207,9.2z"/>
<path class="st2" d="M216.1,3c0.9-0.1,1.9,0.1,2.7,0.6c0.7,0.4,1.3,0.9,1.7,1.6c0.2,0.4,0.4,0.8,0.5,1.2c0,0.1,0,0.2,0,0.3
	c0,0.2-0.1,0.3-0.3,0.4c0,0,0,0,0,0H219c-0.1,0-0.2,0-0.3-0.1c-0.1-0.1-0.2-0.2-0.2-0.3c0-0.1-0.1-0.2-0.1-0.3
	c-0.1-0.1-0.2-0.3-0.3-0.4c-0.1-0.1-0.2-0.3-0.4-0.3c-0.2-0.1-0.5-0.3-0.7-0.3h-0.2h-0.2h-0.1c-0.2,0-0.3,0-0.5,0l-0.4,0.1l-0.2,0
	c-0.1,0-0.1,0-0.2,0.1c-0.3,0.1-0.5,0.2-0.7,0.4c-0.2,0.1-0.3,0.3-0.5,0.5c-0.1,0.2-0.3,0.4-0.4,0.7c-0.1,0.2-0.2,0.5-0.2,0.8
	c0,0.1-0.1,0.2-0.1,0.3c0,0.1,0,0.2-0.1,0.4v0.2c0,0.1,0,0.1,0,0.2c0,0.1,0,0.1,0,0.2c0,0.2,0,0.4,0,0.5c0,0.2,0,0.3,0.1,0.5
	c0,0,0,0.1,0,0.1c0,0,0,0.1,0,0.1c0.1,0.5,0.3,1,0.6,1.4c0.3,0.4,0.7,0.7,1.1,0.9l0.3,0.1l0.3,0.1c0.1,0,0.1,0,0.2,0
	c0.1,0,0.1,0,0.2,0c0.1,0,0.2,0,0.2,0c0.1,0,0.2,0,0.3,0h0.3c0,0,0.1,0,0.1,0c0,0,0.1,0,0.1,0l0.4-0.1c0.1,0,0.3-0.1,0.4-0.1
	c0.2-0.1,0.5-0.3,0.6-0.6c0.2-0.2,0.3-0.5,0.4-0.8c0-0.1,0.1-0.3,0.1-0.4c0-0.1,0-0.3-0.1-0.3c-0.1,0-0.2-0.1-0.3-0.1h-1.3
	c-0.1,0-0.1,0-0.2,0h-0.1h-0.1c0,0-0.1,0-0.1,0c-0.1,0-0.1-0.1-0.1-0.2c0-0.1,0-0.2,0-0.3c0-0.1,0-0.2,0-0.3V9.1c0-0.1,0-0.2,0-0.2
	c0-0.1,0-0.1,0-0.2c0-0.1,0.1-0.2,0.2-0.2h0.2h0.2c0,0,0.1,0,0.1,0h3.5c0.2,0,0.3,0,0.4,0.1c0.1,0.1,0.1,0.2,0.1,0.3v4.7
	c0,0.2,0,0.4,0,0.6c0,0.2-0.1,0.3-0.2,0.4c-0.1,0-0.2,0-0.2,0h-0.3H220c-0.1,0-0.3-0.1-0.3-0.3c0-0.1-0.1-0.2-0.1-0.3
	c0-0.1-0.1-0.2-0.1-0.3l-0.1-0.1c0,0-0.1,0-0.1,0c-0.1,0-0.2,0.1-0.2,0.1c-0.1,0.1-0.1,0.1-0.2,0.2l-0.3,0.2
	c-0.1,0.1-0.2,0.1-0.3,0.2c-0.1,0.1-0.3,0.2-0.4,0.2l-0.5,0.2h-0.2H217c-0.1,0-0.2,0-0.3,0c-0.1,0-0.2,0-0.3,0c-0.1,0-0.1,0-0.2,0
	h-0.2H216h-0.2h-0.3l-0.3-0.1h-0.3l-0.2-0.1l-0.2-0.1c-0.3-0.1-0.6-0.2-0.8-0.3c-0.6-0.3-1.1-0.7-1.5-1.2c-0.4-0.5-0.8-1.1-1-1.7
	c-0.1-0.1-0.1-0.3-0.1-0.4c0-0.2-0.1-0.3-0.1-0.4c0,0,0-0.1,0-0.1c0,0,0-0.1,0-0.1c0-0.1,0-0.2,0-0.2c0-0.1,0-0.2,0-0.3
	c0,0,0-0.1,0-0.1c0,0,0-0.1,0-0.1V9.2c0-0.2,0-0.3,0-0.5V8.6c0-0.1,0-0.1,0-0.2c0-0.1,0-0.1,0-0.2c0-0.1,0-0.2,0-0.3
	c0-0.1,0-0.2,0-0.3c0-0.1,0.1-0.2,0.1-0.3c0-0.1,0.1-0.2,0.1-0.3l0.1-0.4c0.1-0.1,0.1-0.3,0.2-0.4c0.1-0.2,0.1-0.3,0.2-0.4
	c0.1-0.1,0.2-0.3,0.3-0.4c0.3-0.4,0.7-0.8,1.1-1.1c0.4-0.3,0.9-0.6,1.5-0.8c0.1-0.1,0.3-0.1,0.4-0.1l0.4-0.1c0.1,0,0.1,0,0.2,0
	c0.1,0,0.1,0,0.2,0c0.1,0,0.1,0,0.2,0C215.9,3.1,216,3.1,216.1,3C216.1,3.1,216.1,3.1,216.1,3C216.1,3.1,216.1,3,216.1,3z"/>
<path class="st2" d="M223.8,3.3h1.7c0.1,0,0.2,0,0.2,0.1c0.1,0.1,0.1,0.2,0.1,0.3c0,0.1,0,0.3,0,0.4v9.5c0,0.1,0,0.3,0,0.5
	c0,0.1,0,0.3-0.1,0.4c-0.1,0.1-0.2,0.2-0.3,0.2c-0.1,0-0.2,0-0.2,0h-0.3h-1.3c-0.1,0-0.2,0-0.3-0.1c-0.1-0.1-0.1-0.2-0.1-0.2
	c0-0.1,0-0.2,0-0.3V4.4c0-0.2,0-0.3,0-0.5c0-0.1,0-0.3,0.1-0.4c0.1-0.1,0.1-0.1,0.2-0.2L223.8,3.3L223.8,3.3z M225.3,0h1.4
	c0.1,0,0.2,0,0.3,0l0,0l0,0c0,0.1,0,0.3-0.1,0.3l-0.3,0.3l-0.2,0.2c-0.1,0.1-0.2,0.1-0.3,0.2c0,0.1,0,0.1,0,0.2c0,0-0.1,0.1-0.1,0.1
	c0,0,0,0.1-0.1,0.1l-0.2,0.2l-0.1,0.1l-0.1,0.1l0,0c-0.1,0.1-0.2,0.1-0.3,0.2c-0.1,0.1-0.2,0.1-0.3,0.2h-0.1h-0.1H224
	c-0.1,0-0.2,0-0.3-0.1c-0.1,0-0.1-0.1-0.1-0.2c0-0.1,0.1-0.2,0.1-0.2c0.1-0.1,0.1-0.1,0.1-0.2l0.3-0.4c0.1-0.1,0.2-0.3,0.3-0.4
	c0.1-0.1,0.1-0.2,0.2-0.3c0.1-0.1,0.1-0.2,0.2-0.2c0.1,0,0.1-0.1,0.2-0.1L225.3,0C225.2-0.1,225.2,0,225.3,0z"/>
<path class="st2" d="M231.8,3.1c2.1,0,3.5,0.6,4.3,1.8c0.1,0.2,0.2,0.3,0.2,0.5c0.1,0.2,0.1,0.4,0.2,0.6c0,0.1,0,0.2,0,0.3
	c0,0.1,0,0.2-0.1,0.3c-0.1,0.1-0.1,0.1-0.2,0.1h-0.3h-1.3c-0.1,0-0.2,0-0.2,0c-0.1,0-0.2-0.1-0.2-0.3c0-0.1-0.1-0.2-0.1-0.3
	c0-0.1-0.1-0.2-0.2-0.3c-0.1-0.1-0.1-0.2-0.2-0.3c-0.1-0.1-0.3-0.2-0.4-0.3c-0.2-0.1-0.3-0.1-0.5-0.1C232.4,5,232.2,5,232,5
	c-0.2,0-0.4,0-0.6,0c-0.2,0-0.3,0.1-0.5,0.1c-0.2,0.1-0.4,0.2-0.6,0.4c-0.1,0.2-0.2,0.4-0.3,0.7c0,0.1,0,0.2,0,0.2
	c0,0.1,0,0.1,0,0.2c0.1,0.2,0.2,0.4,0.4,0.5c0.2,0.1,0.4,0.2,0.6,0.3c0.1,0.1,0.2,0.1,0.4,0.1c0.1,0,0.3,0.1,0.4,0.1
	c0.3,0.1,0.6,0.2,0.9,0.3c0.3,0.1,0.6,0.1,0.9,0.2h0.2c0.1,0,0.1,0,0.2,0c0.2,0.1,0.4,0.1,0.7,0.2c0.2,0.1,0.4,0.1,0.6,0.3
	c0.3,0.2,0.5,0.3,0.7,0.5c0.2,0.2,0.4,0.4,0.6,0.7c0.1,0.1,0.1,0.2,0.1,0.3l0.1,0.3c0,0,0,0.1,0,0.1c0,0,0,0,0,0.1
	c0.1,0.2,0.1,0.4,0.1,0.6c0,0.1,0,0.1,0,0.2v0.4l-0.1,0.3c0,0.1,0,0.2-0.1,0.3c-0.1,0.2-0.1,0.4-0.2,0.5c-0.1,0.2-0.2,0.3-0.3,0.5
	c0,0.1-0.1,0.1-0.1,0.1c0,0-0.1,0.1-0.1,0.1c-0.1,0.1-0.1,0.1-0.2,0.2l-0.2,0.2l-0.2,0.1l-0.2,0.1c-0.2,0.1-0.4,0.2-0.6,0.3
	l-0.6,0.2c-0.1,0-0.3,0.1-0.5,0.1l-0.5,0.1c-0.1,0-0.1,0-0.2,0c-0.1,0-0.1,0-0.2,0h-0.2c0,0-0.1,0-0.1,0h-0.7c-0.1,0-0.2,0-0.2,0
	c-0.1,0-0.1,0-0.2,0h-0.1h-0.1l-0.4-0.1c-0.1,0-0.3-0.1-0.4-0.1c-0.5-0.2-0.9-0.4-1.4-0.6c-0.4-0.3-0.7-0.6-1-1
	c-0.2-0.3-0.3-0.6-0.4-0.9c0-0.1,0-0.1,0-0.2c0-0.1,0-0.1,0-0.2c0-0.1,0-0.2-0.1-0.3c0-0.1,0-0.2,0.1-0.3c0.1-0.1,0.1-0.1,0.2-0.1
	c0.1,0,0.2,0,0.4,0h1.3c0.1,0,0.2,0,0.3,0c0.1,0.1,0.2,0.2,0.2,0.3c0,0.1,0.1,0.3,0.1,0.4c0,0.1,0.1,0.2,0.2,0.4
	c0.1,0.1,0.1,0.2,0.2,0.3c0.1,0.1,0.1,0.1,0.2,0.2l0.2,0.1c0.3,0.2,0.6,0.3,0.9,0.4h0.2h0.2h0.2c0.1,0,0.2,0,0.4,0
	c0.1,0,0.2,0,0.4,0h0.2h0.2c0.1,0,0.1,0,0.2,0c0.3-0.1,0.6-0.2,0.9-0.4c0.2-0.2,0.4-0.5,0.4-0.8c0-0.1,0-0.2,0-0.3
	c0-0.1-0.1-0.2-0.1-0.3c-0.1-0.3-0.3-0.5-0.5-0.7l-0.2-0.1c-0.2-0.1-0.4-0.2-0.5-0.2l-0.6-0.2l-0.2-0.1h-0.2l-0.5-0.1
	c-0.2,0-0.3-0.1-0.5-0.1H231c0,0-0.1,0-0.1,0l-0.2-0.1l-0.2-0.1l-0.7-0.4c-0.2-0.1-0.4-0.2-0.6-0.3c-0.2-0.2-0.5-0.3-0.7-0.6
	c-0.2-0.2-0.4-0.5-0.5-0.7c0-0.1-0.1-0.2-0.1-0.3c0-0.1-0.1-0.2-0.1-0.3c0-0.1,0-0.2,0-0.4c0-0.1,0-0.3,0-0.4c0-0.1,0-0.1,0-0.2
	c0-0.1,0.1-0.2,0.1-0.3c0-0.1,0.1-0.2,0.1-0.3c0.1-0.3,0.4-0.7,0.6-0.9c0.3-0.3,0.5-0.5,0.9-0.7c0.2-0.1,0.4-0.2,0.7-0.3
	c0.2-0.1,0.5-0.1,0.8-0.2h0.3c0.1,0,0.2,0,0.3,0c0,0,0.1,0,0.1,0C231.7,3.1,231.8,3.1,231.8,3.1z"/>
<path class="st2" d="M244.3,3.3h2c0.1,0,0.2,0,0.3,0.1c0,0,0.1,0.1,0.1,0.1c0,0,0,0.1,0,0.2v0.1c0,0,0,0.1,0,0.2v0.8
	c0,0.1,0,0.1,0,0.2c0,0.1,0,0.1,0,0.2c0,0.2-0.2,0.3-0.3,0.3h-2.2c-0.2,0-0.4,0-0.6,0c-0.2,0-0.3,0.1-0.3,0.3c0,0,0,0.1,0,0.1
	c0,0,0,0.1,0,0.1c0,0.1,0,0.1,0,0.2c0,0.1,0,0.1,0,0.2v7.5c0,0.2,0,0.3,0,0.4c0,0.1-0.1,0.2-0.2,0.3c-0.1,0-0.2,0-0.3,0h-1.4h-0.3
	c-0.1,0-0.2,0-0.2-0.1c-0.1-0.1-0.1-0.2-0.1-0.3V6.4c0-0.1,0-0.2,0-0.2c0-0.1,0-0.1,0-0.2c0,0,0-0.1,0-0.1c0,0,0-0.1,0-0.1
	c0-0.2-0.2-0.3-0.3-0.3c-0.2,0-0.4,0-0.6,0h-1.9c-0.1,0-0.2,0-0.3,0c-0.1,0-0.1-0.1-0.2-0.1c0-0.1-0.1-0.1-0.1-0.2
	c0-0.1,0-0.2,0-0.3V4c0-0.1,0-0.2,0-0.4c0-0.1,0.1-0.2,0.1-0.2l0.2-0.1H244.3L244.3,3.3z"/>
<path class="st2" d="M248.5,3.3h1.7c0.1,0,0.2,0,0.2,0.1c0.1,0.1,0.1,0.2,0.1,0.3v9.9c0,0.1,0,0.3,0,0.5c0,0.1,0,0.3-0.1,0.4
	c-0.1,0.1-0.2,0.2-0.3,0.2c-0.1,0-0.2,0-0.2,0h-0.3h-1.3c-0.1,0-0.2,0-0.2-0.1c-0.1-0.1-0.1-0.1-0.1-0.2c0-0.1,0-0.2,0-0.3V4.4
	c0-0.2,0-0.3,0-0.5c0-0.1,0-0.3,0.1-0.4c0-0.1,0.1-0.1,0.2-0.2L248.5,3.3L248.5,3.3z"/>
<path class="st2" d="M257.7,3c1-0.1,1.9,0.1,2.8,0.6c0.7,0.4,1.3,1,1.7,1.6c0.1,0.2,0.2,0.4,0.3,0.6c0.1,0.2,0.2,0.4,0.2,0.6
	c0,0.1,0,0.2,0.1,0.3c0,0.1,0,0.2,0,0.3c0,0.1-0.1,0.1-0.1,0.1l-0.2,0.1h-0.1c-0.1,0-0.1,0-0.2,0h-1h-0.4c-0.1,0-0.2,0-0.2-0.1
	c-0.1-0.1-0.2-0.2-0.2-0.3c0-0.1-0.1-0.2-0.1-0.3c-0.2-0.3-0.5-0.6-0.8-0.8c-0.2-0.1-0.5-0.3-0.8-0.3c-0.2-0.1-0.4-0.1-0.7-0.1
	c-0.2,0-0.5,0-0.7,0.1l-0.2,0c-0.1,0-0.1,0-0.2,0.1c-0.7,0.3-1.2,0.8-1.5,1.5c-0.1,0.1-0.1,0.3-0.1,0.4S255,7.5,255,7.7v0.2
	c0,0.1,0,0.1,0,0.2c0,0.1,0,0.1,0,0.2c0,0.1,0,0.1,0,0.2c0,0.1,0,0.2,0,0.3c0,0.1,0,0.2,0,0.3c0,0.1,0,0.1,0,0.1c0,0,0,0.1,0,0.1
	v0.1c0,0.1,0,0.1,0,0.2c0,0.1,0,0.1,0,0.2c0,0.1,0,0.2,0,0.3l0.1,0.3c0,0.1,0,0.2,0.1,0.3c0.1,0.4,0.3,0.8,0.6,1.1
	c0.2,0.3,0.6,0.6,0.9,0.8c0.1,0.1,0.2,0.1,0.4,0.1l0.4,0.1h0.1h0.3c0.1,0,0.1,0,0.2,0h0.2h0.1l0.4-0.1c0.1,0,0.2-0.1,0.3-0.1
	c0.2-0.1,0.4-0.2,0.6-0.4c0.2-0.2,0.3-0.4,0.5-0.6c0.1-0.1,0.1-0.2,0.2-0.4c0-0.1,0.1-0.3,0.1-0.4c0-0.1,0.1-0.2,0.1-0.3
	c0-0.1,0.1-0.2,0.2-0.2c0.1,0,0.2,0,0.2,0h1.5c0.1,0,0.2,0,0.2,0.1c0.1,0.1,0.1,0.2,0.1,0.3c0,0.1,0,0.2,0,0.3l-0.1,0.4l-0.1,0.5
	c0,0.1-0.1,0.3-0.2,0.4c0,0.1-0.1,0.2-0.1,0.3c0,0.1-0.1,0.2-0.1,0.2c-0.6,0.9-1.5,1.6-2.5,1.9c-0.1,0-0.2,0.1-0.4,0.1l-0.4,0.1
	h-0.1c0,0-0.1,0-0.1,0h-0.2h-0.2h-0.5c-0.1,0-0.2,0-0.3,0h-0.2H257h-0.2l-0.3-0.1l-0.3-0.1l-0.3-0.1l-0.3-0.1
	c-0.7-0.3-1.2-0.7-1.7-1.2c-0.5-0.5-0.8-1-1.1-1.6c-0.1-0.2-0.1-0.3-0.2-0.5s-0.1-0.3-0.1-0.5c0,0,0-0.1,0-0.1c0,0,0-0.1,0-0.1
	c0-0.1,0-0.2,0-0.3c0-0.1,0-0.2,0-0.3c0,0,0-0.1,0-0.1c0,0,0-0.1,0-0.1V9.2c0-0.1,0-0.2,0-0.2c0-0.1,0-0.2,0-0.2c0,0,0-0.1,0-0.1
	c0,0,0-0.1,0-0.1V8.4c0-0.1,0-0.2,0-0.3c0-0.1,0-0.2,0-0.3c0-0.1,0-0.2,0-0.3s0-0.2,0.1-0.3s0.1-0.3,0.1-0.4c0-0.1,0.1-0.3,0.1-0.4
	c0-0.1,0.1-0.3,0.2-0.4c0.1-0.1,0.1-0.3,0.2-0.4c0.2-0.3,0.3-0.5,0.5-0.8l0.2-0.2l0.2-0.2c0.3-0.3,0.5-0.5,0.8-0.7
	c0.3-0.2,0.7-0.4,1-0.5l0.4-0.1l0.4-0.1c0.1,0,0.1,0,0.2,0c0.1,0,0.1,0,0.2,0h0.3h0.2c0,0,0.1,0,0.1,0C257.7,3.1,257.7,3.1,257.7,3z
	"/>
<path class="st2" d="M275.3,8.6c0,0.1,0,0.2,0,0.3c0,0.1,0,0.2,0,0.3v0.2c0,0.1,0,0.2,0,0.3c0,0.1,0,0.2,0,0.4c0,0.1,0,0.1,0,0.2
	c0,0.1,0,0.1,0,0.2l-0.1,0.6c0,0.2-0.1,0.4-0.2,0.5c-0.3,0.7-0.7,1.3-1.3,1.9c-0.6,0.5-1.3,0.9-2,1.1c-0.1,0-0.2,0.1-0.4,0.1
	l-0.4,0.1c-0.1,0-0.1,0-0.2,0h-0.2l-0.5,0.1h-0.2h-0.2h-0.1c0,0-0.1,0-0.1,0H269c-0.1,0-0.2,0-0.2,0h-0.2l-0.3-0.1l-0.3-0.1
	l-0.4-0.1c-0.1,0-0.2-0.1-0.4-0.1c-0.6-0.3-1.2-0.6-1.6-1.1c-0.5-0.5-0.8-1-1.1-1.6c-0.1-0.1-0.1-0.3-0.2-0.5c0-0.2-0.1-0.3-0.1-0.5
	c0,0,0-0.1,0-0.1c0,0,0-0.1,0-0.1c0-0.1,0-0.2,0-0.2c0-0.1,0-0.2,0-0.3c0,0,0-0.1,0-0.1c0,0,0-0.1,0-0.1c0-0.1,0-0.1,0-0.2
	c0-0.1,0-0.1,0-0.2c0-0.1,0-0.2,0-0.3c0-0.1,0-0.2,0-0.2c0-0.1,0-0.1,0-0.2c0,0,0-0.1,0-0.2V8.4c0-0.1,0-0.1,0-0.2
	c0-0.1,0-0.1,0-0.2c0-0.1,0-0.1,0-0.2c0-0.1,0-0.1,0-0.2c0-0.2,0.1-0.4,0.1-0.5c0-0.2,0.1-0.4,0.1-0.5c0.1-0.2,0.2-0.4,0.2-0.5
	c0.1-0.2,0.2-0.4,0.3-0.5c0.3-0.5,0.7-0.9,1.1-1.3c0.5-0.4,1-0.7,1.5-0.9c0.1-0.1,0.3-0.1,0.4-0.1l0.5-0.1c0,0,0.1,0,0.1,0h0.2h0.5
	c0,0,0.1,0,0.1,0s0.1,0,0.1,0c0.7,0,1.4,0,2,0.2c0.5,0.2,1,0.4,1.5,0.7l0.4,0.3c0.1,0.1,0.3,0.2,0.4,0.4l0.1,0.2l0.1,0.2l0.4,0.5
	c0.1,0.2,0.2,0.4,0.3,0.6c0.1,0.2,0.1,0.3,0.2,0.4l0.1,0.4c0,0.1,0.1,0.2,0.1,0.3c0,0.1,0,0.2,0.1,0.3c0,0.1,0,0.1,0,0.2
	c0,0.1,0,0.1,0,0.2c0,0.1,0,0.1,0,0.2C275.2,8.4,275.2,8.5,275.3,8.6L275.3,8.6z M272.8,9.2c0-0.2,0-0.3,0-0.5V8.5c0,0,0-0.1,0-0.1
	c0,0,0-0.1,0-0.1c0-0.1,0-0.2,0-0.2c0-0.1,0-0.2,0-0.2c0-0.1,0-0.1,0-0.2l-0.2-0.4c0-0.1-0.1-0.2-0.1-0.3c-0.2-0.5-0.6-1-1-1.3
	c-0.5-0.4-1.2-0.5-1.8-0.5h-0.1c0,0-0.1,0-0.1,0c0,0-0.1,0-0.1,0l-0.3,0.1c-0.1,0-0.2,0.1-0.3,0.1c-0.4,0.2-0.8,0.4-1.1,0.8
	c-0.3,0.4-0.5,0.8-0.6,1.2c0,0.1,0,0.2-0.1,0.3c0,0.1,0,0.2-0.1,0.3c0,0,0,0.1,0,0.1c0,0,0,0.1,0,0.1c0,0.1,0,0.1,0,0.2
	c0,0.1,0,0.1,0,0.2c0,0.1,0,0.2,0,0.3c0,0.1,0,0.2,0,0.3v0.2c0,0,0,0.1,0,0.1c0,0,0,0.1,0,0.1c0,0,0,0.1,0,0.1v0.1
	c0,0.1,0.1,0.2,0.1,0.3c0,0.1,0,0.2,0.1,0.3c0.1,0.3,0.3,0.6,0.4,0.9c0.2,0.3,0.4,0.5,0.6,0.7c0,0.1,0.1,0.1,0.2,0.1l0.2,0.1
	c0.1,0.1,0.2,0.1,0.4,0.2l0.4,0.1c0,0,0.1,0,0.1,0h0.1c0.1,0,0.1,0,0.2,0h0.5c0,0,0.1,0,0.1,0l0.3-0.1c0.1,0,0.2,0,0.3-0.1
	c0.4-0.1,0.8-0.4,1.1-0.7c0.3-0.3,0.5-0.7,0.7-1.1c0.1-0.1,0.1-0.2,0.1-0.4c0-0.1,0.1-0.3,0.1-0.4V9.5c0,0,0-0.1,0-0.1L272.8,9.2
	L272.8,9.2z"/>
</svg>
